<svg xmlns="http://www.w3.org/2000/svg" viewBox="0 0 510.83 104.71"><g id="Layer_2" data-name="Layer 2"><g id="Full_logo" data-name="Full logo"><path d="M161.27,66l.27-34.86H176l-.27,36.77c-.28,20.7-12.94,36.91-35.28,36.77S105.84,88,106,67.25l.28-36.09h14.43l-.27,34.73c-.14,13.07,7,24.65,20,24.78S161.13,79.23,161.27,66Z"/><path d="M186.14,66.8a37.48,37.48,0,0,1,37.75-37.21h0c13.13.14,25.31,6.16,31.73,19.15l-12,6.7a21.75,21.75,0,0,0-19.84-12c-12.58-.14-23,10.53-23.11,23.52S210.9,91,223.48,91.14a22,22,0,0,0,20-11.76l11.9,6.7c-6.7,13-18.87,18.74-32,18.61C202.69,104.82,186,87.59,186.14,66.8Z"/><path d="M314.21,66.73a37.41,37.41,0,0,1,37.67-37.15h.7c21.7.14,38.09,16.25,37.95,37.69l-.27,35.86H376.47V90.49c-5.46,8.74-15,14.2-26.76,14.2C329.09,104.41,314.07,87.48,314.21,66.73Zm61.85.55A23.76,23.76,0,1,0,352.17,90.9a23.77,23.77,0,0,0,23.89-23.62Z"/><circle cx="37.56" cy="67.15" r="37.56"/><path d="M307.89,43.52a32.66,32.66,0,0,0-15.81,4l-.14.08a20.17,20.17,0,0,0-10.23,17.1v38.41H268v-72h13.1V46.59A33,33,0,0,1,291,34.54a24,24,0,0,1,13-4.95h2.3a8.51,8.51,0,0,1,1.6.14Z"/><path d="M410.14,25.76v5.4H395.86V43.83h14.28v59.32h14.15V43.83h19.35V31.16H424.29V25.89c0-9.21,5.34-13.08,14-12.94A21.57,21.57,0,0,1,446,14.41L449,2.27A30.54,30.54,0,0,0,437.1,0C419.62-.13,410.28,10.94,410.14,25.76Z"/><path d="M508.12,89.11a23.77,23.77,0,0,1-10.56,2.57C489,91.55,483.88,86,484,76.65V43.83h19.77V31.16H484v-28H469.39v28H455.45V43.83h13.94V77.06c-.13,16.25,9.21,27.49,26.95,27.62a26.61,26.61,0,0,0,14.49-3.93Z"/></g></g></svg>